# xmcd
#
# Track frame offsets: 
#        300
#        18962
#        33405
#        58468
#        64113
#        90972
#        108955
#        115627
#        130668
#        157700
#
# Disc length: 2286 seconds
#
# Revision: 0
# Processed by: cddbd v1.5.2PL0 Copyright (c) Steve Scherf et al.
# Submitted via: ExactAudioCopy v1.3
#
DISCID=7208ea0a
DTITLE=Bonzo - Sügise Süles
DYEAR=2015
DGENRE=Folk
TTITLE0=Vävideta Maal
TTITLE1=Oodates Õhtutes
TTITLE2=Laulud Laotan Luidetele
TTITLE3=Värvideta Maa I
TTITLE4=November
TTITLE5=Saju Saladus
TTITLE6=Värvideta Maa II
TTITLE7=Vereval Lumel
TTITLE8=Sügise Süles
TTITLE9=Oktoober
EXTD=
EXTT0=
EXTT1=
EXTT2=
EXTT3=
EXTT4=
EXTT5=
EXTT6=
EXTT7=
EXTT8=
EXTT9=
PLAYORDER=
